<svg width="30" height="30" viewBox="0 0 30 30" fill="none" xmlns="http://www.w3.org/2000/svg">
<path d="M14.001 14.0013L14.0002 5.45381C14.0002 4.90159 14.4478 4.45397 15 4.45402C15.5523 4.45407 16 4.90178 16 5.454L16.0008 14.0015L24.5437 14.0023C25.0959 14.0023 25.5437 14.45 25.5437 15.0023C25.5438 15.5545 25.0961 16.0021 24.5439 16.002L16.001 16.0013L16.0018 24.5437C16.0018 25.0959 15.5542 25.5435 15.002 25.5435C14.4498 25.5434 14.0021 25.0957 14.002 24.5435L14.0012 16.0011L5.45423 16.0003C4.90201 16.0002 4.45431 15.5525 4.45425 15.0003C4.4542 14.4481 4.90182 14.0005 5.45404 14.0005L14.001 14.0013Z" fill="white"/>
</svg>
