<svg width="16" height="16" viewBox="0 0 16 16" fill="none" xmlns="http://www.w3.org/2000/svg">
<g clip-path="url(#clip0)">
<path d="M13.3252 8.39401C12.9535 7.91334 12.3926 7.58319 11.6425 7.40375C12.5977 6.91651 13.0175 6.08956 12.9022 4.92275C12.8637 4.49964 12.7467 4.13295 12.5511 3.82212C12.3554 3.51123 12.0913 3.2613 11.7577 3.07223C11.4244 2.88292 11.0619 2.73881 10.6711 2.63945C10.2801 2.5401 9.8313 2.46796 9.32487 2.42313V0H7.8442V2.35581C7.58781 2.35581 7.19679 2.36221 6.6712 2.37504V0H5.19034V2.42313C4.97873 2.42957 4.66787 2.43283 4.25763 2.43283L2.21918 2.42313V4.00012H3.28643C3.77363 4.00012 4.05889 4.21812 4.14221 4.65396V7.41368C4.2064 7.41368 4.25763 7.41698 4.29613 7.42338H4.14221V11.2887C4.09099 11.6155 3.90511 11.7791 3.58456 11.7791H2.51737L2.21924 13.5388H4.14238C4.2642 13.5388 4.44037 13.5404 4.67124 13.5433C4.90198 13.5466 5.07499 13.5482 5.1904 13.5482V16.0001H6.6715V13.577C6.94067 13.5836 7.33168 13.5867 7.84451 13.5867V16.0001H9.3252V13.5482C9.85096 13.5226 10.3173 13.4748 10.7242 13.404C11.1312 13.3332 11.5208 13.2228 11.8925 13.0721C12.2642 12.9215 12.575 12.7339 12.825 12.5095C13.0751 12.2854 13.2816 12 13.4454 11.6538C13.6086 11.3075 13.7129 10.9069 13.7576 10.4517C13.8413 9.56085 13.697 8.87488 13.3252 8.39401ZM6.7 4.1056C6.74489 4.1056 6.87149 4.10398 7.07983 4.10075C7.28827 4.09745 7.46127 4.09428 7.59909 4.09105C7.73694 4.08789 7.92284 4.0959 8.15691 4.11513C8.39088 4.13436 8.58797 4.16006 8.74818 4.19205C8.90839 4.22405 9.08484 4.27696 9.27697 4.35068C9.46945 4.42434 9.62319 4.51413 9.73844 4.61988C9.85393 4.72563 9.95166 4.86031 10.0317 5.02379C10.1119 5.18723 10.152 5.37472 10.152 5.58623C10.152 5.76574 10.1232 5.92925 10.0655 6.07676C10.008 6.22418 9.92125 6.34761 9.806 6.44696C9.69072 6.54635 9.5719 6.63297 9.45008 6.70663C9.3284 6.78028 9.1728 6.83962 8.98376 6.88445C8.79476 6.92935 8.6297 6.96461 8.48875 6.9902C8.3477 7.01587 8.17146 7.03355 7.95989 7.04311C7.74829 7.05268 7.58797 7.05921 7.47906 7.06238C7.37004 7.06554 7.22104 7.06554 7.03187 7.06238C6.84266 7.05921 6.73223 7.05753 6.7001 7.05753V4.10557H6.7V4.1056ZM10.7435 10.6537C10.6824 10.8012 10.604 10.9295 10.5079 11.0385C10.4117 11.1473 10.285 11.2436 10.128 11.3268C9.9711 11.4103 9.8187 11.4775 9.67139 11.5287C9.52388 11.5802 9.34592 11.6249 9.13778 11.6635C8.92917 11.702 8.7466 11.729 8.58938 11.7452C8.43241 11.7612 8.24498 11.774 8.02695 11.7837C7.80908 11.7931 7.6391 11.798 7.51735 11.798C7.39553 11.798 7.24165 11.7963 7.05575 11.7931C6.86974 11.7901 6.75125 11.7885 6.69993 11.7885V8.53832C6.75115 8.53832 6.90342 8.53519 7.15668 8.52866C7.40998 8.52219 7.6166 8.51919 7.77688 8.51919C7.93712 8.51919 8.15836 8.52866 8.44052 8.54802C8.72242 8.56712 8.95962 8.59585 9.15209 8.63431C9.34433 8.67284 9.55412 8.73205 9.78186 8.81227C10.0094 8.89236 10.1937 8.99009 10.3348 9.10548C10.4759 9.22106 10.5944 9.36827 10.6905 9.54782C10.7869 9.72726 10.8349 9.93243 10.8349 10.1633C10.8349 10.3429 10.8045 10.5062 10.7435 10.6537Z" fill="#fff"/>
</g>
<defs>
<clipPath id="clip0">
<rect width="16" height="16" fill="white"/>
</clipPath>
</defs>
</svg>
