<svg width="16" height="16" viewBox="0 0 16 16" fill="none" xmlns="http://www.w3.org/2000/svg">
<g clip-path="url(#clip0)">
<path d="M12.3714 10.966C12.3807 9.70013 11.8803 8.69904 10.8822 7.99207C10.1114 7.44775 9.17587 7.16381 8.27105 6.89096C6.38619 6.31955 5.83941 6.01857 5.83941 5.1172C5.83941 4.11318 7.14422 3.75594 8.26124 3.75594C9.07473 3.75594 10.0106 4.00887 10.5919 4.38371L11.7442 2.5991C10.9846 2.10664 9.9449 1.77074 8.91827 1.66648V0H6.7926V1.78334C4.90307 2.19901 3.71276 3.43397 3.71276 5.1172C3.71276 6.29604 4.20262 7.23092 5.16596 7.89031C5.89864 8.39372 6.79223 8.66402 7.65541 8.92572C9.50422 9.48454 10.255 9.82506 10.2464 10.9528L10.2464 10.9611C10.2464 11.9076 8.99204 12.2441 7.91741 12.2441C6.90229 12.2441 5.7984 11.7992 5.17266 11.1378L3.62842 12.5985C4.42086 13.4366 5.57218 14.0291 6.79256 14.2614V16H8.91827V14.2988C11.0179 13.9983 12.3693 12.7342 12.3714 10.966Z" fill="#1152FD"/>
</g>
<defs>
<clipPath id="clip0">
<rect width="16" height="16" fill="white"/>
</clipPath>
</defs>
</svg>
