<?xml version="1.0" encoding="utf-8"?>
<!-- Generator: Adobe Illustrator 22.0.0, SVG Export Plug-In . SVG Version: 6.00 Build 0)  -->
<svg version="1.1" id="Слой_1" xmlns="http://www.w3.org/2000/svg" xmlns:xlink="http://www.w3.org/1999/xlink" x="0px" y="0px"
	 viewBox="0 0 612 471.5" style="enable-background:new 0 0 612 471.5;" xml:space="preserve">
<style type="text/css">
	.st0{fill:#EEA886;}
	.st1{fill:#CF8C6C;}
	.st2{fill:#DB9C7C;}
	.st3{fill:#323657;}
	.st4{fill:#DBD8E3;}
	.st5{fill:#EEA987;}
	.st6{fill:#3A3F47;}
	.st7{fill:#C78D71;}
	.st8{fill:#D44040;}
	.st9{fill:#C4C1CC;}
</style>
<g>
	<g>
		<g>
			<g>
				<path class="st0" d="M517.5,348c0,0,18.7-5.7,21.6-6.5c2.9-0.8,11.3,2.2,19.2,7.6c7.7,5.2,19.4,11.3,19.7,12.9
					c0.3,1.6,1.3,2.9-0.5,6.8c-1.8,3.9-5.4,6.1-5.4,6.1s0,5.8-4.7,8.3c0,0-0.2,5.4-6,7.4c0,0-0.4,5.3-4.7,6.4c0,0-7.9-2.7-11.1-2.8
					c-3.2-0.1-23.3-9.7-37.7-18.4C507.8,375.8,500.9,365.7,517.5,348z"/>
			</g>
		</g>
		<g>
			<g>
				<path class="st1" d="M541.5,361.9c0,0-7.5,6.3-10.5,7c-3,0.7,7.9,19.5,7.9,19.5S548.9,371.2,541.5,361.9z"/>
			</g>
		</g>
		<g>
			<g>
				<path class="st2" d="M575.6,360.7c0,0-22.6-9.2-24.5-5.7c-1.9,3.4-0.5,5.9-0.5,5.9l-11,0.4c0,0-7.1,4.4-0.3,10.9
					c0,0-7.1,3.4,0.3,8.9c0,0-3.7,4.3-0.7,7.5c3,3.1,17.7,8.4,17.7,8.4s4,0,5.1-6.1c0,0,5.7-1.6,6-7.5c0,0,5.9-3.6,6.2-10
					c0,0,5.8-4.7,3.9-11.6C577.9,361.8,576.6,361.1,575.6,360.7z"/>
			</g>
		</g>
		<g>
			<g>
				<path class="st0" d="M539.8,341.7c0,0,10.9,12.7,13.8,22.2c0.7,2.2,0.9,4.4-0.8,5.8c-1.8,1.4-6,0.7-11-4.6
					c-5-5.2-13.9-9.7-13.9-9.7S524.2,348.5,539.8,341.7z"/>
			</g>
		</g>
		<g>
			<path class="st0" d="M574,373.4c0,0-23.2-12.9-25.8-12.7c-2.7,0.1,2-8.4,4.3-8.3c2.3,0.1,23,7.6,24.9,8.8
				C579.2,362.4,580.4,371.2,574,373.4z"/>
		</g>
		<g>
			<path class="st0" d="M573.4,358.4c0,0,37.6,21.3,35.4,25.8c-2.1,4.3-12.6,3.1-40.9-14.5C540.5,352.7,573.4,358.4,573.4,358.4z"/>
		</g>
		<path class="st3" d="M290.9,197.2c0,0,73.3,53.3,108.4,75.7c11,7,117.6,67.9,121.8,70.8c4.2,2.8-16.2,37-16.2,37
			s-119.6-66.8-127.3-69.7c-7.7-2.9-118.7-65.3-125.6-78c-6.9-12.7-40.6-47.3-28.1-56.4C241.5,163.7,290.9,197.2,290.9,197.2z"/>
	</g>
	<g>
		<path class="st4" d="M303.2,462.1c0.3,3.3,0.5,6.5,0.8,9.3H139.2c0.1-2.8,0.1-5.9,0.2-9.3c0.6-27.5,1.4-72.5,1-89.5
			c-0.5-24.3-5.6-87.4-6.6-91c0,0-36.2-52.5-74.1,51.2c-7.8,21.4,64,74.9,55,76.6c-8.9,1.6-8.5,18.6-8.5,18.6S38.6,368.9,40,351.6
			c0.8-9.6,53.7-149.6,61.8-155.4c5.5-4,40.1-17.8,58.1-24.6c8.3-3.2,14.6-5.4,15.9-5.5c4.1-0.3,54.7,4.6,54.7,4.6s6.3,2.1,13.7,5.5
			c12.7,5.8,33.5,19.5,47.7,26.2c4.6,2.2,9.8,4.3,14.5,6.8c-0.6,17.2-1.2,32.3-2.6,52c0,0-2.6,43.1-2.9,86.6
			c-2.3,9.9-1.9,32.7-1.9,32.7c-0.6,21.7,1.8,44,2.4,56.4C301.8,444.8,302.5,453.9,303.2,462.1z"/>
	</g>
	<g>
		<g>
			<path class="st5" d="M215,16.7c0,0,42.2,7.1,35,73.2c-7.2,66.1-44.4,60.3-46.9,60.2c-2.5-0.1-37.5,0.8-39.3-80
				C163.9,70.1,163.3,10.4,215,16.7z"/>
		</g>
		<g>
			<path class="st5" d="M233.5,130.9c0,0-8.1,30.8-5.5,36.8c2.6,5.9-27.2,21-49.9-0.3c0,0,4.6-29.7,3.2-40.2
				C179.8,116.6,233.5,130.9,233.5,130.9z"/>
		</g>
		<g>
			<path class="st5" d="M250.9,71.3c0,0,4.7-4.9,6.3,0.1c1.6,5-7.5,27.3-6.9,28.3c0,0-0.9,1.9-2,0.9
				C247.3,99.5,250.9,71.3,250.9,71.3z"/>
		</g>
		<g>
			<path class="st5" d="M164.3,69.5c0,0-4.5-5.1-6.3-0.1c-1.8,5,4.9,27.2,5.7,28.6c0,0,1.5,2.3,2.6,1.2
				C167.5,98.1,164.3,69.5,164.3,69.5z"/>
		</g>
		<g>
			<path class="st6" d="M253.6,65.6c-1.5,9-2.8,15.8-2.8,15.8l-6.1,8c0,0,0.4-17.7-0.6-20.5c-0.4-1.1-0.8-2.9-1.2-5
				c-0.7-3.3-1.4-7.1-1.9-8.4c-0.8-2-36.2-12.3-67.7,2.2c0,0,0.3,2.7,0.2,5.8c0,3.5-0.4,7.5-2,8.1c-3,1.1-1.8,20.8-1.8,20.8
				l-4.9-5.7c0,0-1.4-10.3-2.8-22.1c0,0,0,0,0-0.1c-0.3-2.7-0.6-5.6-0.9-8.4c-0.7-11.9,0.5-33.4,15.9-46.1
				c10.4-4.5,27.1-8.3,54.8,0.2c0,0,6.4,0.4,8.1,2.1C257.3,31.5,253.6,65.6,253.6,65.6z"/>
		</g>
		<path class="st7" d="M184.2,141.3c0,0,6.7,9.4,22.4,9c15.7-0.4,22.4-8.5,22.4-8.5s-7.4,15.5-22.5,15.3
			C191.4,156.9,184.2,141.3,184.2,141.3z"/>
		<path class="st5" d="M173.8,167.9c0,0,22.2,31.2,43.6,33.1c13.6,1.2,6-23.7,11.6-32.1C229,168.9,207,151.9,173.8,167.9z"/>
	</g>
	<g>
		<path class="st3" d="M310.3,462.1c-2.4-15.4-4.6-31.4-6.5-46.8v-0.1c-0.3-2.5-0.6-5-0.9-7.4c0-0.1,0-0.3,0-0.4
			c-1.2-10.4-2.2-20.3-2.9-29.4c-0.5-7-0.1-13.8,0.9-20.5c2.8-46.5,4.2-95.6,4.2-95.6c1.5-20.1,2.1-35,2.7-52.5
			c0,0-63.4-33.9-69.1-35.6c0,0,12.1,28.3,21.1,91.6c3.5,24.3,9.9,65.2,14.6,107c1.8,16.5,4.9,33.1,7.8,48.8
			c2.7,14.8,5.4,28.8,6.8,40.9c0.1,0.7,0.2,1.5,0.3,2.2c0.2,2.1,0.5,4.5,0.8,7.1h21.8C311.3,468.3,310.8,465.2,310.3,462.1z"/>
	</g>
	<g>
		<path class="st3" d="M198.3,388c-2.9,28.1-6.1,50.8-8.6,74c-0.3,3.1-0.6,6.2-0.9,9.3h-66.9c0.9-3.1,1.7-6.2,2.5-9.3
			c7.2-27.1,12.9-54.7,12.9-71.4c0,0-13.9-100.1-18.6-116.2c0,0-42.1,31.1-51.9,52.7c-8.8,19.3,55.7,78.1,54.9,80.1
			c-4.4,11.6-21.2,32.8-21.2,32.8S0.7,332.8,2,319.6c1-9.6,84.7-116.5,92.7-122.3c4.7-3.4,39.3-15.6,56.2-22.3
			c3.1-1.2,13.2-5,16-6.1c3.6,4,28.9,31.2,37.6,134.7C206.1,321,201.4,357.9,198.3,388z"/>
	</g>
	<path class="st8" d="M215.7,189.7l9.4,12.6c0,0-5.5,7.3-15.2,1.9L215.7,189.7z"/>
	<path class="st8" d="M222.5,202.8c0,0,35.5,136.6,28.2,242.9l-11.9,21l-11.2-22c0,0-3.1-190.2-12.8-242.3L222.5,202.8z"/>
	<path class="st5" d="M225.7,178l-10,11.7c0,0-16.1-3.1-20.8-11.5C190.2,169.8,225.7,178,225.7,178z"/>
	<path class="st9" d="M228,167.7c0,0-1.2,8.9-12.3,22l12.2,16.4l6.6-33.9L228,167.7z"/>
	<path class="st9" d="M179.5,159.2c0,0,19.9,24,36.2,30.5l-7.6,18.7l-37.8-40.7L179.5,159.2z"/>
	<path class="st0" d="M110.1,406.9c0,0,3.1,2.6,6.3,2.5c5.6,0,12-6.1,17.8-0.6c5.8,5.5-6.5,29-10.9,31.7
		c-4.4,2.7-14.5-2.2-25.3-15.2C87.2,412.3,110.1,406.9,110.1,406.9z"/>
	<path class="st0" d="M131.9,407.2c0,0,11.3,3.9,23.4,9.8c10.6,5.2,23,13,21.7,15.7c-1.9,4.1-11.3-3.6-22.2-8
		c-10-4.1-8.7-1.6-8.7-1.6s-0.3-0.7,9.7,5.8c10.7,7,22,15.1,21,17.3c-1.2,2.7-1.6,3-5.9,1.1c2.2,1.6,2.1,2.5,1.5,3.5
		c-3.1,5.2-20.5-2.6-27.4-5.7c5.3,2.4,8.9,4.8,5,6.8c-4.5,2.3-28.6-10-37.7-13.5C102.3,434.5,131.9,407.2,131.9,407.2z"/>
	<path class="st3" d="M121.7,407.2c0,0-2.5,14.4-21.2,32.8c0,0-42.9-47.3-50.5-56.2l33.6-19.5L121.7,407.2z"/>
</g>
</svg>
